#!OML:ASF F:\VICON\USERDATA\INSTALL\rory3\rory3.ASF
:FULLY-SPECIFIED
:DEGREES
2316
root -2.11519 14.0219 -9.1932 -368.329 20.1465 356.281
lowerback 19.5248 4.44279 -0.585321
upperback 1.48336 6.09684 3.28188
thorax -9.7416 3.01828 2.22426
lowerneck -12.7224 -4.63467 -3.14598
upperneck 16.8909 -6.20217 2.7916
head 7.47585 -2.89426 0.795139
rclavicle 1.25731e-014 -1.31198e-014
rhumerus -13.7042 51.7374 -106.311
rradius 49.665
rwrist -67.7504
rhand -18.575 11.6349
rfingers 7.12502
rthumb 7.71541 -18.2044
lclavicle 1.25731e-014 -1.31198e-014
lhumerus -31.641 27.4436 65.9474
lradius 47.1552
lwrist 62.3413
lhand 4.17446 28.6453
lfingers 7.12502
lthumb 29.5822 56.3074
rfemur -14.2452 -31.649 27.7598
rtibia 65.007
rfoot -47.8128 -12.0507
rtoes 13.4591
lfemur -41.0766 -7.82175 3.3531
ltibia 32.3852
lfoot 7.07502 19.2524
ltoes 19.9244
2317
root -2.04545 14.0248 -9.15929 -368.148 20.2491 356.402
lowerback 19.7461 4.36786 -0.730885
upperback 1.42247 5.96652 3.25448
thorax -9.93618 2.96038 2.29762
lowerneck -13.3286 -4.71785 -3.69019
upperneck 17.4829 -6.30722 3.32292
head 7.81808 -2.91584 1.02673
rclavicle -1.82385e-014 -3.02153e-014
rhumerus -13.5344 51.1282 -106.145
rradius 49.3458
rwrist -66.2373
rhand -15.5762 9.09547
rfingers 7.12502
rthumb 10.609 -20.6167
lclavicle -1.82385e-014 -3.02153e-014
lhumerus -31.8251 27.5272 65.862
lradius 47.1966
lwrist 61.9166
lhand 1.01707 26.5686
lfingers 7.12502
lthumb 26.5642 54.7257
rfemur -14.0302 -31.7879 27.1908
rtibia 65.0245
rfoot -47.766 -11.5729
rtoes 13.6324
lfemur -41.4773 -7.06114 2.74798
ltibia 32.9976
lfoot 5.21253 19.5083
ltoes 30.331
2318
root -1.96521 14.0373 -9.10524 -367.969 19.7044 356.416
lowerback 19.5921 4.61902 -0.700465
upperback 1.35033 6.29396 3.15218
thorax -9.93436 3.11185 2.08223
lowerneck -12.6862 -4.77924 -3.10537
upperneck 17.1057 -6.44632 2.95085
head 7.55182 -2.99093 0.813276
rclavicle -2.57923e-014 3.57812e-015
rhumerus -14.1193 51.5536 -106.548
rradius 49.7377
rwrist -66.9209
rhand -17.522 10.5805
rfingers 7.12502
rthumb 8.73163 -19.2189
lclavicle -2.57923e-014 3.57812e-015
lhumerus -31.9213 26.84 65.8371
lradius 47.4401
lwrist 62.4069
lhand 0.71652 26.2147
lfingers 7.12502
lthumb 26.2765 54.415
rfemur -13.7367 -31.2462 26.8919
rtibia 64.8543
rfoot -47.6511 -11.4046
rtoes 13.4564
lfemur -41.5712 -5.72864 2.29594
ltibia 33.5698
lfoot 5.27548 19.0285
ltoes 32.4803
2319
root -1.88527 14.0486 -9.05665 -367.789 19.7386 356.352
lowerback 19.7149 4.52462 -0.549702
upperback 1.22078 6.19737 3.06395
thorax -10.1143 3.05521 1.91662
lowerneck -12.6037 -4.77619 -2.77051
upperneck 16.8523 -6.45364 2.67998
head 7.43337 -3.0025 0.674866
rclavicle 2.32081e-014 -1.03368e-014
rhumerus -14.3438 51.3564 -106.822
rradius 49.5305
rwrist -66.4217
rhand -17.5083 10.9364
rfingers 7.12502
rthumb 8.74489 -18.8625
lclavicle 2.32081e-014 -1.03368e-014
lhumerus -32.0359 26.9184 65.5489
lradius 47.454
lwrist 62.5085
lhand 0.351447 26.3873
lfingers 7.12502
lthumb 25.927 54.6392
rfemur -13.5176 -31.4603 26.4953
rtibia 64.7537
rfoot -47.3281 -12.0875
rtoes 10.7487
lfemur -42.0506 -4.69405 1.76054
ltibia 34.3632
lfoot 6.15638 18.0844
ltoes 30.9757
2320
root -1.80129 14.0668 -8.99299 -367.558 19.6402 356.657
lowerback 19.4723 4.51461 -0.996059
upperback 1.33343 6.0809 3.05984
thorax -9.89521 3.02194 2.21602
lowerneck -12.9988 -4.74936 -3.11796
upperneck 17.1903 -6.39606 2.93746
head 7.63327 -2.96478 0.808193
rclavicle -1.56742e-013 -9.54166e-015
rhumerus -13.9836 51.0432 -106.427
rradius 49.8355
rwrist -65.4655
rhand -15.4585 7.16798
rfingers 7.12502
rthumb 10.7225 -22.5384
lclavicle -1.56742e-013 -9.54166e-015
lhumerus -32.1033 27.2908 65.4345
lradius 47.4096
lwrist 62.3333
lhand 0.531674 26.2632
lfingers 7.12502
lthumb 26.0995 54.4898
rfemur -13.0165 -31.4164 25.6435
rtibia 64.617
rfoot -47.2561 -11.5484
rtoes 11.1126
lfemur -42.3289 -3.86405 0.96476
ltibia 35.3724
lfoot 5.74579 17.3514
ltoes 31.4888
2321
root -1.72376 14.0663 -8.95161 -367.593 19.4694 356.394
lowerback 19.7088 4.56949 -0.872282
upperback 1.33729 6.19346 3.17281
thorax -10.029 3.07133 2.22194
lowerneck -13.248 -4.85622 -3.47838
upperneck 17.3648 -6.52505 3.23875
head 7.76248 -3.01593 0.943274
rclavicle -2.96189e-014 8.34896e-015
rhumerus -14.3287 51.5421 -106.515
rradius 49.9377
rwrist -67.4543
rhand -16.2995 9.66137
rfingers 7.12502
rthumb 9.91126 -20.0853
lclavicle -2.96189e-014 8.34896e-015
lhumerus -32.0743 27.3905 65.4101
lradius 47.4448
lwrist 62.2695
lhand 0.980357 26.3879
lfingers 7.12502
lthumb 26.529 54.5503
rfemur -12.6579 -31.2711 25.5414
rtibia 64.3924
rfoot -47.0843 -11.846
rtoes 9.22354
lfemur -42.8722 -2.942 0.792463
ltibia 36.4542
lfoot 6.08407 16.5192
ltoes 33.5639
2322
root -1.6391 14.0886 -8.88406 -367.473 19.2684 356.441
lowerback 19.8192 4.53326 -0.939598
upperback 1.23985 6.12386 3.08513
thorax -10.1913 3.03785 2.17374
lowerneck -12.9858 -4.79209 -3.29235
upperneck 17.0779 -6.46575 3.19459
head 7.61129 -2.98673 0.913791
rclavicle 1.28067e-013 1.11319e-014
rhumerus -14.8676 51.5982 -107.044
rradius 50.1258
rwrist -66.6872
rhand -16.7537 9.82404
rfingers 7.12502
rthumb 9.47297 -19.9431
lclavicle 1.28067e-013 1.11319e-014
lhumerus -32.3748 27.3127 65.0683
lradius 47.6758
lwrist 62.7451
lhand 0.668362 26.2725
lfingers 7.12502
lthumb 26.2304 54.4797
rfemur -11.951 -31.1098 24.9686
rtibia 63.9823
rfoot -47.1759 -10.9894
rtoes 10.3373
lfemur -43.2307 -2.04273 0.29911
ltibia 37.5459
lfoot 6.66027 15.4815
ltoes 32.822
2323
root -1.54991 14.104 -8.82866 -367.166 19.0534 356.51
lowerback 19.7774 4.54176 -0.98366
upperback 1.10627 6.11611 2.97405
thorax -10.3082 3.03292 2.07758
lowerneck -13.0427 -4.72253 -2.70468
upperneck 17.1975 -6.42276 2.81891
head 7.62593 -2.96151 0.698834
rclavicle 4.31363e-014 6.36111e-015
rhumerus -15.3139 51.9061 -107.516
rradius 50.3257
rwrist -67.6622
rhand -16.9216 10.4502
rfingers 7.12502
rthumb 9.31096 -19.3241
lclavicle 4.31363e-014 6.36111e-015
lhumerus -32.5745 27.2144 64.7587
lradius 47.9376
lwrist 63.2651
lhand 0.100662 26.4995
lfingers 7.12502
lthumb 25.6868 54.7863
rfemur -11.6737 -31.0354 24.4398
rtibia 63.794
rfoot -47.0552 -10.4618
rtoes 10.6972
lfemur -43.812 -1.05841 -0.271665
ltibia 38.6539
lfoot 7.2822 14.4572
ltoes 29.2396
2324
root -1.45434 14.109 -8.76987 -367.138 18.8716 356.358
lowerback 19.9836 4.48931 -0.762153
upperback 1.01398 6.09089 2.89906
thorax -10.4919 3.00611 1.86192
lowerneck -13.0129 -4.66384 -2.52033
upperneck 17.2231 -6.37611 2.78728
head 7.62037 -2.93038 0.664283
rclavicle -2.29596e-014 -3.22031e-014
rhumerus -15.9457 52.6369 -108.087
rradius 50.6562
rwrist -68.8161
rhand -18.1655 12.3515
rfingers 7.12502
rthumb 8.11057 -17.4729
lclavicle -2.29596e-014 -3.22031e-014
lhumerus -32.7325 27.5941 64.2953
lradius 47.8576
lwrist 62.636
lhand 1.47266 26.4868
lfingers 7.12502
lthumb 27.0002 54.5772
rfemur -11.0828 -30.9534 24.0453
rtibia 63.4825
rfoot -46.7834 -10.5893
rtoes 9.15187
lfemur -44.162 -0.258046 -0.606017
ltibia 39.6042
lfoot 7.69915 13.5104
ltoes 26.5133
2325
root -1.36172 14.1329 -8.70572 -367.066 18.6337 356.381
lowerback 20.2749 4.49533 -0.484921
upperback 0.735806 6.13517 2.58802
thorax -10.9012 2.99861 1.32323
lowerneck -12.5877 -4.62109 -2.02661
upperneck 17.1659 -6.42089 2.77435
head 7.51053 -2.92644 0.586236
rclavicle -7.0494e-014 3.37934e-015
rhumerus -16.2214 51.9115 -108.594
rradius 50.5704
rwrist -67.6197
rhand -16.7304 10.303
rfingers 7.12502
rthumb 9.49544 -19.463
lclavicle -7.0494e-014 3.37934e-015
lhumerus -33.0782 26.6299 63.9526
lradius 48.263
lwrist 63.293
lhand 1.32202 26.3068
lfingers 7.12502
lthumb 26.856 54.4194
rfemur -10.4138 -30.8268 23.4635
rtibia 63.021
rfoot -46.4412 -10.7508
rtoes 7.1508
lfemur -44.4127 0.454609 -0.990223
ltibia 40.6382
lfoot 7.26606 13.0298
ltoes 36.0814
